<svg width="18" height="19" viewBox="0 0 18 19" fill="none" xmlns="http://www.w3.org/2000/svg">
<path d="M14.54 5.92C14.9287 5.92 15.3136 5.84344 15.6727 5.69468C16.0319 5.54593 16.3582 5.3279 16.633 5.05304C16.9079 4.77817 17.1259 4.45187 17.2747 4.09274C17.4234 3.73362 17.5 3.34871 17.5 2.96C17.5 2.57129 17.4234 2.18638 17.2747 1.82726C17.1259 1.46813 16.9079 1.14183 16.633 0.866964C16.3582 0.592102 16.0319 0.37407 15.6727 0.225317C15.3136 0.0765626 14.9287 -5.79227e-09 14.54 0C13.755 1.1698e-08 13.0021 0.311856 12.447 0.866964C11.8919 1.42207 11.58 2.17496 11.58 2.96C11.58 3.74504 11.8919 4.49793 12.447 5.05304C13.0021 5.60814 13.755 5.92 14.54 5.92ZM3.46 5.92C3.84871 5.92 4.23362 5.84344 4.59274 5.69468C4.95187 5.54593 5.27817 5.3279 5.55304 5.05304C5.8279 4.77817 6.04593 4.45187 6.19468 4.09274C6.34344 3.73362 6.42 3.34871 6.42 2.96C6.42 2.57129 6.34344 2.18638 6.19468 1.82726C6.04593 1.46813 5.8279 1.14183 5.55304 0.866964C5.27817 0.592102 4.95187 0.37407 4.59274 0.225317C4.23362 0.0765626 3.84871 -5.79227e-09 3.46 0C2.67496 1.1698e-08 1.92207 0.311856 1.36696 0.866964C0.811856 1.42207 0.5 2.17496 0.5 2.96C0.5 3.74504 0.811856 4.49793 1.36696 5.05304C1.92207 5.60814 2.67496 5.92 3.46 5.92ZM14.54 18.221C15.325 18.221 16.0779 17.9091 16.633 17.354C17.1881 16.7989 17.5 16.046 17.5 15.261C17.5 14.476 17.1881 13.7231 16.633 13.168C16.0779 12.6129 15.325 12.301 14.54 12.301C13.755 12.301 13.0021 12.6129 12.447 13.168C11.8919 13.7231 11.58 14.476 11.58 15.261C11.58 16.046 11.8919 16.7989 12.447 17.354C13.0021 17.9091 13.755 18.221 14.54 18.221ZM3.46 18.221C4.24504 18.221 4.99793 17.9091 5.55304 17.354C6.10814 16.7989 6.42 16.046 6.42 15.261C6.42 14.476 6.10814 13.7231 5.55304 13.168C4.99793 12.6129 4.24504 12.301 3.46 12.301C2.67496 12.301 1.92207 12.6129 1.36696 13.168C0.811856 13.7231 0.5 14.476 0.5 15.261C0.5 16.046 0.811856 16.7989 1.36696 17.354C1.92207 17.9091 2.67496 18.221 3.46 18.221Z" fill="#3FA3FF"/>
</svg>
