<svg width="60" height="60" viewBox="0 0 60 60" fill="none" xmlns="http://www.w3.org/2000/svg">
<path d="M30 60C26.0603 60 22.1592 59.224 18.5195 57.7164C14.8797 56.2087 11.5725 53.9989 8.78677 51.2132C6.00101 48.4274 3.79123 45.1202 2.28359 41.4805C0.775957 37.8407 -8.7881e-06 33.9396 0 30H0C-7.68959e-06 26.0603 0.77596 22.1592 2.2836 18.5195C3.79124 14.8797 6.00102 11.5725 8.78678 8.78677C11.5725 6.00102 14.8797 3.79123 18.5195 2.2836C22.1593 0.775961 26.0603 -6.59109e-06 30 0V0C33.9397 -6.59109e-06 37.8407 0.775961 41.4805 2.2836C45.1203 3.79123 48.4275 6.00101 51.2132 8.78677C53.999 11.5725 56.2088 14.8797 57.7164 18.5195C59.224 22.1592 60 26.0603 60 30V30C60 33.9396 59.224 37.8407 57.7164 41.4805C56.2088 45.1202 53.999 48.4274 51.2132 51.2132C48.4275 53.9989 45.1203 56.2087 41.4805 57.7164C37.8407 59.224 33.9397 60 30 60V60Z" fill="#3E5C9A"/>
<path d="M25.4286 48.1333H32.7313V29.8459H37.8264L38.3696 23.7226H32.7313V20.2353C32.7313 18.7918 33.0213 18.2212 34.4173 18.2212H38.3696V11.8665H33.3128C27.8787 11.8665 25.4286 14.26 25.4286 18.8408V23.7226H21.6299V29.9224H25.4286V48.1333Z" fill="white"/>
</svg>
