<svg width="60" height="60" viewBox="0 0 60 60" fill="none" xmlns="http://www.w3.org/2000/svg">
<path d="M30 60C26.0603 60 22.1592 59.224 18.5195 57.7164C14.8797 56.2087 11.5725 53.9989 8.78676 51.2132C6.001 48.4274 3.79123 45.1202 2.28359 41.4805C0.775956 37.8407 -8.78809e-06 33.9396 0 30C-6.59106e-06 26.0603 0.775961 22.1592 2.2836 18.5195C3.79123 14.8797 6.00101 11.5725 8.78677 8.78677C11.5725 6.00102 14.8797 3.79124 18.5195 2.2836C22.1592 0.775963 26.0603 -5.49255e-06 30 0C33.9396 -7.68958e-06 37.8407 0.775958 41.4805 2.28359C45.1202 3.79123 48.4274 6.00101 51.2132 8.78676C53.9989 11.5725 56.2087 14.8797 57.7164 18.5195C59.224 22.1592 60 26.0603 60 30C60 37.9565 56.8393 45.5871 51.2132 51.2132C45.5871 56.8393 37.9565 60 30 60Z" fill="#DF4B38"/>
<path d="M42.9209 29.2499H30.8001L30.8144 32.7217H38.9869C38.0205 36.9488 35.0373 39.5406 31.0336 39.5406C29.4848 39.541 27.9594 39.1632 26.5899 38.4398C25.2204 37.7165 24.0484 36.6696 23.1756 35.3901C22.3029 34.1107 21.7559 32.6374 21.5822 31.0984C21.4085 29.5594 21.6133 28.0013 22.1789 26.5595C22.7444 25.1177 23.6536 23.8358 24.8274 22.8254C26.0012 21.815 27.404 21.1066 28.9139 20.7618C30.4238 20.4169 31.995 20.4462 33.4911 20.8469C34.9871 21.2476 36.3626 22.0076 37.498 23.061L40.1798 20.7492C38.656 19.2478 36.786 18.1446 34.735 17.5369C32.6839 16.9292 30.5148 16.8358 28.419 17.2648C26.3233 17.6938 24.3654 18.6321 22.7181 19.9969C21.0708 21.3617 19.7848 23.1109 18.9735 25.0903C18.1623 27.0697 17.8507 29.2184 18.0664 31.3467C18.2821 33.475 19.0183 35.5175 20.2102 37.2939C21.402 39.0703 23.0128 40.5261 24.9004 41.5326C26.788 42.5392 28.8944 43.0656 31.0336 43.0655C37.9461 43.0655 42.941 37.7932 42.941 30.595L42.9209 29.2499Z" fill="white"/>
</svg>
