<svg width="22" height="21" viewBox="0 0 22 21" fill="none" xmlns="http://www.w3.org/2000/svg">
<path d="M19.04 4.82201L13.28 0.792013C11.71 -0.307987 9.29999 -0.247987 7.78999 0.922013L2.77999 4.83201C1.77999 5.61201 0.98999 7.21201 0.98999 8.47201V15.372C0.98999 17.922 3.05999 20.002 5.60999 20.002H16.39C18.94 20.002 21.01 17.932 21.01 15.382V8.60201C21.01 7.25201 20.14 5.59201 19.04 4.82201ZM11.75 16.002C11.75 16.412 11.41 16.752 11 16.752C10.59 16.752 10.25 16.412 10.25 16.002V13.002C10.25 12.592 10.59 12.252 11 12.252C11.41 12.252 11.75 12.592 11.75 13.002V16.002Z" fill="#204051"/>
</svg>
