<svg width="25" height="25" viewBox="0 0 25 25" fill="none" xmlns="http://www.w3.org/2000/svg">
<path fill-rule="evenodd" clip-rule="evenodd" d="M8.33419 18.3218C11.7567 17.8218 14.1132 17.8648 17.5402 18.3393C17.7884 18.3753 18.0152 18.4999 18.1787 18.69C18.3421 18.8802 18.4313 19.1231 18.4297 19.3738C18.4297 19.6138 18.3472 19.8468 18.1982 20.0288C17.9385 20.3461 17.6724 20.6582 17.4002 20.9648H18.7207C18.8037 20.8658 18.8872 20.7648 18.9717 20.6623C19.2683 20.2986 19.4301 19.8436 19.4297 19.3743C19.4297 18.3618 18.6907 17.4893 17.6772 17.3493C14.1692 16.8638 11.7172 16.8173 8.18969 17.3328C7.16569 17.4823 6.42969 18.3683 6.42969 19.3878C6.42969 19.8403 6.57719 20.2878 6.85669 20.6503C6.93919 20.7573 7.02069 20.8623 7.10169 20.9653H8.39019C8.1369 20.6621 7.88985 20.3537 7.64919 20.0403C7.50617 19.8527 7.42902 19.6232 7.42969 19.3873C7.42969 18.8488 7.81669 18.3973 8.33419 18.3218Z" fill="#333333"/>
<path fill-rule="evenodd" clip-rule="evenodd" d="M12.9297 13.4648C13.3237 13.4648 13.7138 13.3872 14.0777 13.2365C14.4417 13.0857 14.7724 12.8647 15.051 12.5862C15.3296 12.3076 15.5506 11.9769 15.7013 11.6129C15.8521 11.2489 15.9297 10.8588 15.9297 10.4648C15.9297 10.0709 15.8521 9.68077 15.7013 9.31679C15.5506 8.95282 15.3296 8.6221 15.051 8.34352C14.7724 8.06495 14.4417 7.84397 14.0777 7.69321C13.7138 7.54244 13.3237 7.46484 12.9297 7.46484C12.134 7.46484 11.371 7.78091 10.8084 8.34352C10.2458 8.90613 9.92969 9.66919 9.92969 10.4648C9.92969 11.2605 10.2458 12.0236 10.8084 12.5862C11.371 13.1488 12.134 13.4648 12.9297 13.4648V13.4648ZM12.9297 14.4648C13.9906 14.4648 15.008 14.0434 15.7581 13.2933C16.5083 12.5431 16.9297 11.5257 16.9297 10.4648C16.9297 9.40398 16.5083 8.38656 15.7581 7.63642C15.008 6.88627 13.9906 6.46484 12.9297 6.46484C11.8688 6.46484 10.8514 6.88627 10.1013 7.63642C9.35111 8.38656 8.92969 9.40398 8.92969 10.4648C8.92969 11.5257 9.35111 12.5431 10.1013 13.2933C10.8514 14.0434 11.8688 14.4648 12.9297 14.4648V14.4648Z" fill="#333333"/>
<path fill-rule="evenodd" clip-rule="evenodd" d="M12.9297 21.9648C17.9002 21.9648 21.9297 17.9353 21.9297 12.9648C21.9297 7.99434 17.9002 3.96484 12.9297 3.96484C7.95919 3.96484 3.92969 7.99434 3.92969 12.9648C3.92969 17.9353 7.95919 21.9648 12.9297 21.9648ZM12.9297 22.9648C18.4527 22.9648 22.9297 18.4878 22.9297 12.9648C22.9297 7.44184 18.4527 2.96484 12.9297 2.96484C7.40669 2.96484 2.92969 7.44184 2.92969 12.9648C2.92969 18.4878 7.40669 22.9648 12.9297 22.9648Z" fill="#333333"/>
</svg>
