<svg width="18" height="18" viewBox="0 0 18 18" fill="none" xmlns="http://www.w3.org/2000/svg">
<path d="M15.6 3.311L9.95001 0.271001C9.65634 0.113446 9.32826 0.0309944 8.99501 0.0309944C8.66175 0.0309944 8.33367 0.113446 8.04001 0.271001L2.40001 3.311C1.99001 3.541 1.73001 3.981 1.73001 4.461C1.73001 4.951 1.98001 5.391 2.40001 5.611L8.05001 8.651C8.34187 8.80854 8.66834 8.89103 9.00001 8.89103C9.33168 8.89103 9.65814 8.80854 9.95001 8.651L15.6 5.611C16.01 5.391 16.27 4.951 16.27 4.461C16.27 3.981 16.01 3.541 15.6 3.311ZM7.12001 9.71L1.87001 7.09C1.67363 6.98991 1.45483 6.94196 1.2346 6.95077C1.01436 6.95958 0.800087 7.02485 0.612337 7.14031C0.424588 7.25577 0.269666 7.41755 0.162438 7.61012C0.0552109 7.80269 -0.000722223 8.01959 7.04083e-06 8.24V13.2C7.04083e-06 14.06 0.480007 14.83 1.25001 15.22L6.50001 17.84C6.68001 17.93 6.88001 17.98 7.08001 17.98C7.31001 17.98 7.55001 17.91 7.76001 17.79C8.14001 17.55 8.37001 17.14 8.37001 16.69V11.73C8.36001 10.87 7.88001 10.1 7.12001 9.71ZM18 8.24V10.7C17.52 10.56 17.01 10.5 16.5 10.5C15.14 10.5 13.81 10.97 12.76 11.81C11.32 12.94 10.5 14.65 10.5 16.5C10.5 16.99 10.56 17.48 10.69 17.95C10.54 17.93 10.39 17.87 10.25 17.78C9.87001 17.55 9.64001 17.14 9.64001 16.69V11.73C9.64001 10.87 10.12 10.1 10.88 9.71L16.13 7.09C16.3264 6.98991 16.5452 6.94196 16.7654 6.95077C16.9857 6.95958 17.1999 7.02485 17.3877 7.14031C17.5754 7.25577 17.7303 7.41755 17.8376 7.61012C17.9448 7.80269 18.0007 8.01959 18 8.24Z" fill="#3FA3FF"/>
</svg>
