<svg width="16" height="20" viewBox="0 0 16 20" fill="none" xmlns="http://www.w3.org/2000/svg">
<path d="M12.16 8C12.16 8 12.01 9 8.91003 13C6.00003 16.77 10.21 19.64 10.71 19.97C10.74 19.99 10.77 19.99 10.81 19.97C11.49 19.55 19.06 14.68 12.16 8Z" fill="#204051"/>
<path d="M9.76001 5.79C9.76001 3.49 8.86001 1.39 7.96001 0.189997C7.66001 -0.110003 7.16001 -0.0100027 7.06001 0.389997C6.66001 1.89 5.46001 5.09 2.56001 8.89C-1.13999 13.69 2.26001 18.89 5.76001 19.89C7.66001 20.39 5.26001 18.89 4.96001 15.79C4.66001 11.89 9.76001 8.99 9.76001 5.79Z" fill="#204051"/>
</svg>
